<svg xmlns="http://www.w3.org/2000/svg" version="1.1" xmlns:xlink="http://www.w3.org/1999/xlink" x="0" y="0"
	viewBox="0 0 64 64" style="enable-background:new 0 0 512 512" xml:space="preserve" class="">
	<g>
		<g data-name="Layer 10">
			<rect width="64" height="64" fill="#da0037" rx="10" opacity="1" data-original="#da0037" class=""></rect>
			<g fill="#f4eee9">
				<circle cx="14" cy="14" r="6" fill="#f4eee9" opacity="1" data-original="#f4eee9" class=""></circle>
				<circle cx="50" cy="50" r="6" fill="#f4eee9" opacity="1" data-original="#f4eee9" class=""></circle>
				<circle cx="14" cy="32" r="6" fill="#f4eee9" opacity="1" data-original="#f4eee9" class=""></circle>
				<circle cx="50" cy="32" r="6" fill="#f4eee9" opacity="1" data-original="#f4eee9" class=""></circle>
				<circle cx="14" cy="50" r="6" fill="#f4eee9" opacity="1" data-original="#f4eee9" class=""></circle>
				<circle cx="50" cy="14" r="6" fill="#f4eee9" opacity="1" data-original="#f4eee9" class=""></circle>
			</g>
			<path
				d="M64 10v44a10.004 10.004 0 0 1-10 10H10A10.004 10.004 0 0 1 0 54v-7.58A27.957 27.957 0 0 0 24 60h10a26 26 0 0 0 26-26V24A27.957 27.957 0 0 0 46.42 0H54a10.004 10.004 0 0 1 10 10z"
				opacity="1" fill="#00000020" data-original="#00000020" class=""></path>
		</g>
	</g>
</svg>